{"title":"Hunky Dory 2011 DVDRiP XviD-UNVEiL","uid":7394913,"size":1478289406,"categoryP":"video","categoryS":"movies","magnet":"?xt=urn:btih:d70fe0d89ecfe7fdc85c4a0a2019693bd0b27cce&amp;dn=Hunky+Dory+2011+DVDRiP+XviD-UNVEiL&amp;tr=udp%3A%2F%2Ftracker.openbittorrent.com%3A80&amp;tr=udp%3A%2F%2Fopen.demonii.com%3A1337&amp;tr=udp%3A%2F%2Ftracker.coppersurfer.tk%3A6969&amp;tr=udp%3A%2F%2Fexodus.desync.com%3A6969","seeders":0,"leechers":1,"uploader":"HeroMaster","files":-1,"time":1340890884,"description":"Hunky Dory 2011 DVDRiP XviD-UNVEiL\n\nIMDB: http://www.imdb.com/title/tt1727300\n\nVideo\nID : 0\nFormat : MPEG-4 Visual\nFormat profile : Advanced SimpleL5\nFormat settings, BVOP : 2\nFormat settings, QPel : No\nFormat settings, GMC : No warppoints\nFormat settings, Matrix : Default (H.263\nCodec ID : XVID\nCodec ID/Hint : XviD\nDuration : 1h 45mn\nBit rate : 1 397 Kbps\nWidth : 640 pixels\nHeight : 272 pixels\nDisplay aspect ratio : 2.35:1\nFrame rate : 25.000 fps\nColor space : YUV\nChroma subsampling : 4:2:0\nBit depth : 8 bits\nScan type : Progressive\nCompression mode : Lossy\nBits/(PixelFrame) : 0.321\nStream size : 1.03 GiB (75\nWriting library : XviD 1.2.1 (UTC 2008-12-04\n\nAudio\nID : 1\nFormat : AC-3\nFormat/Info : Audio Coding 3\nMode extension : CM (complete main\nCodec ID : 2000\nDuration : 1h 45mn\nBit rate mode : Constant\nBit rate : 448 Kbps\nChannel(s) : 6 channels\nChannel positions : Front: L C R, Side: L R, LFE\nSampling rate : 48.0 KHz\nBit depth : 16 bits\nCompression mode : Lossy\nDelay relative to video : 6ms\nStream size : 338 MiB (24\nAlignment : Split across interleaves\nInterleave, duration : 40 ms (1.00 video frame\nInterleave, preload duration : 500 ms\n\n\nPoster:\n\n &lt;a href=&quot;\nhttp://i.imgur.com/OKGGu.jpg&quot; rel=&quot;nofollow&quot; target=&quot;_NEW&quot;&gt;\nhttp://i.imgur.com/OKGGu.jpg&lt;/a&gt;\n\n\nScreenshots:\n\n &lt;a href=&quot;\nhttp://i.imgur.com/Qo30q.jpg&quot; rel=&quot;nofollow&quot; target=&quot;_NEW&quot;&gt;\nhttp://i.imgur.com/Qo30q.jpg&lt;/a&gt;\n\n\nENJOY!","torrent":{"xt":"urn:btih:d70fe0d89ecfe7fdc85c4a0a2019693bd0b27cce","amp;dn":"Hunky+Dory+2011+DVDRiP+XviD-UNVEiL","amp;tr":["udp%3A%2F%2Ftracker.openbittorrent.com%3A80","udp%3A%2F%2Fopen.demonii.com%3A1337","udp%3A%2F%2Ftracker.coppersurfer.tk%3A6969","udp%3A%2F%2Fexodus.desync.com%3A6969"],"infoHash":"d70fe0d89ecfe7fdc85c4a0a2019693bd0b27cce","infoHashBuffer":{"type":"Buffer","data":[215,15,224,216,158,207,231,253,200,92,74,10,32,25,105,59,208,178,124,206]},"announce":[],"urlList":[]}}